<svg width="24" height="24" viewBox="0 0 24 24" fill="none" xmlns="http://www.w3.org/2000/svg">
<path d="M4.244 12.252C3.81565 11.8235 3.48386 11.3084 3.27087 10.7412C3.05788 10.1741 2.96862 9.56789 3.00908 8.96338C3.04953 8.35888 3.21877 7.77001 3.50543 7.23626C3.7921 6.70251 4.18957 6.23622 4.67119 5.86866C5.15281 5.5011 5.70746 5.24075 6.29793 5.10509C6.8884 4.96943 7.50106 4.96158 8.09481 5.08207C8.68857 5.20256 9.2497 5.4486 9.74058 5.8037C10.2315 6.15881 10.6408 6.61476 10.941 7.14098H12.059C12.3592 6.61476 12.7685 6.15881 13.2594 5.8037C13.7503 5.4486 14.3114 5.20256 14.9052 5.08207C15.4989 4.96158 16.1116 4.96943 16.7021 5.10509C17.2925 5.24075 17.8472 5.5011 18.3288 5.86866C18.8104 6.23622 19.2079 6.70251 19.4946 7.23626C19.7812 7.77001 19.9505 8.35888 19.9909 8.96338C20.0314 9.56789 19.9421 10.1741 19.7291 10.7412C19.5161 11.3084 19.1844 11.8235 18.756 12.252L11.5 19.51L4.244 12.253V12.252ZM19.462 12.962C19.9741 12.4498 20.3748 11.8372 20.6387 11.1627C20.9026 10.4882 21.024 9.76635 20.9955 9.04261C20.9669 8.31888 20.7888 7.60888 20.4726 6.95729C20.1563 6.30569 19.7086 5.72659 19.1576 5.2564C18.6067 4.78621 17.9644 4.43511 17.2712 4.22518C16.578 4.01524 15.8489 3.95102 15.1296 4.03655C14.4104 4.12207 13.7166 4.3555 13.092 4.72214C12.4673 5.08878 11.9253 5.58071 11.5 6.16698C11.0747 5.58071 10.5327 5.08878 9.90801 4.72214C9.28336 4.3555 8.58961 4.12207 7.87037 4.03655C7.15114 3.95102 6.42199 4.01524 5.72878 4.22518C5.03557 4.43511 4.3933 4.78621 3.84236 5.2564C3.29142 5.72659 2.84373 6.30569 2.52745 6.95729C2.21116 7.60888 2.03313 8.31888 2.00454 9.04261C1.97596 9.76635 2.09744 10.4882 2.36134 11.1627C2.62524 11.8372 3.02586 12.4498 3.538 12.962L11.5 20.923L19.462 12.963V12.962Z" fill="#939393"/>
</svg>
