<svg width="24" height="24" viewBox="0 0 24 24" fill="none" xmlns="http://www.w3.org/2000/svg">
<path d="M20.6387 11.1627C20.3748 11.8373 19.9742 12.4499 19.462 12.962V12.963L11.5 20.923L3.53803 12.962C3.0259 12.4499 2.62528 11.8373 2.36137 11.1627C2.09747 10.4882 1.97599 9.76641 2.00458 9.04267C2.03317 8.31894 2.2112 7.60894 2.52748 6.95735C2.84376 6.30575 3.29145 5.72665 3.84239 5.25646C4.39333 4.78627 5.0356 4.43517 5.72881 4.22524C6.42202 4.0153 7.15117 3.95108 7.87041 4.03661C8.58964 4.12213 9.2834 4.35556 9.90805 4.7222C10.5327 5.08884 11.0747 5.58077 11.5 6.16705C11.9253 5.58077 12.4674 5.08884 13.092 4.7222C13.7167 4.35556 14.4104 4.12213 15.1297 4.03661C15.8489 3.95108 16.578 4.0153 17.2713 4.22524C17.9645 4.43517 18.6067 4.78627 19.1577 5.25646C19.7086 5.72665 20.1563 6.30575 20.4726 6.95735C20.7889 7.60894 20.9669 8.31894 20.9955 9.04267C21.0241 9.76641 20.9026 10.4882 20.6387 11.1627Z" fill="#939393"/>
</svg>
