<svg width="26" height="26" viewBox="0 0 26 26" fill="none" xmlns="http://www.w3.org/2000/svg">
<path opacity="0.7" fill-rule="evenodd" clip-rule="evenodd" d="M17.4887 10.0005C17.4887 10.4135 17.1542 10.7501 16.7401 10.7501H15.9906C15.5765 10.7501 15.241 10.4135 15.241 10.0005V9.24987C15.241 8.83694 15.5765 8.50027 15.9906 8.50027H16.7401C17.1542 8.50027 17.4887 8.83694 17.4887 9.24987V10.0005ZM17.4886 16.7501C17.4886 17.1652 17.1541 17.5008 16.7401 17.5008H9.24959C8.83448 17.5008 8.5 17.1652 8.5 16.7501V13C8.5 12.5849 8.83448 12.2504 9.24959 12.2504H10.1049C10.0417 12.4912 9.99809 12.7396 9.99809 13C9.99809 14.6572 11.3393 15.9995 12.9943 15.9995C14.6493 15.9995 15.9905 14.6572 15.9905 13C15.9905 12.7396 15.9458 12.4912 15.8837 12.2504H16.7401C17.1541 12.2504 17.4886 12.5849 17.4886 13V16.7501ZM12.9943 11.5008C14.3736 11.5008 14.4924 13 14.4924 13C14.4924 13 14.5371 14.5003 12.9943 14.5003C11.4526 14.5003 11.4962 13 11.4962 13C11.4962 13 11.615 11.5008 12.9943 11.5008ZM17.4886 7H8.50005C7.6731 7 7.00195 7.67224 7.00195 8.50027V17.5008C7.00195 18.3289 7.6731 19 8.50005 19H17.4886C18.3156 19 18.9867 18.3289 18.9867 17.5008V8.50027C18.9867 7.67224 18.3156 7 17.4886 7Z" fill="#939393"/>
</svg>
