<svg width="26" height="26" viewBox="0 0 26 26" fill="none" xmlns="http://www.w3.org/2000/svg">
<path opacity="0.7" fill-rule="evenodd" clip-rule="evenodd" d="M19 10.1618C18.5582 10.3582 18.0847 10.4924 17.5862 10.5524C18.0945 10.2469 18.4851 9.76036 18.6684 9.18109C18.1927 9.46473 17.6658 9.672 17.1051 9.78218C16.6567 9.30109 16.0164 9 15.3084 9C13.9491 9 12.8462 10.1095 12.8462 11.4785C12.8462 11.6727 12.868 11.8625 12.9095 12.0436C10.864 11.94 9.04982 10.9527 7.83564 9.45382C7.624 9.81927 7.50182 10.2447 7.50182 10.6996C7.50182 11.5593 7.93709 12.3185 8.59709 12.7625C8.19345 12.7495 7.81382 12.6382 7.48218 12.4527C7.48218 12.4636 7.48218 12.4735 7.48218 12.4833C7.48218 13.6844 8.33091 14.6869 9.45673 14.9138C9.25055 14.9716 9.03236 15.0011 8.80873 15.0011C8.64945 15.0011 8.49564 14.9858 8.34509 14.9575C8.65818 15.9415 9.568 16.6582 10.6447 16.6778C9.80255 17.3433 8.74109 17.7382 7.58691 17.7382C7.38836 17.7382 7.19309 17.7273 7 17.7044C8.08982 18.408 9.38364 18.8182 10.7735 18.8182C15.3029 18.8182 17.7782 15.0415 17.7782 11.7665C17.7782 11.6585 17.776 11.5505 17.7716 11.4458C18.2527 11.0956 18.6695 10.6593 19 10.1618Z" fill="#939393"/>
</svg>
